<svg id="Capa_1" enable-background="new 0 0 512.016 512.016" height="512" viewBox="0 0 512.016 512.016" width="512" xmlns="http://www.w3.org/2000/svg"><g><path d="m180.168 298.203c-19.562 0-53.134-15.085-74.27-34.336-7.988-7.275-19.754-8.76-29.094-3.33-28.171 16.378-57.058 45.281-68.618 82.541-3.367 10.851 6.331 21.134 17.428 18.703 19.366-4.243 44.377-.973 61.103 13.05 5.235 4.389 12.736 4.506 18.275.508 25.38-18.323 66.963-17.013 84.195 8.85z" fill="#565e75"/><path d="m331.847 298.203c19.562 0 53.134-15.085 74.27-34.336 7.988-7.275 19.754-8.76 29.094-3.33 28.171 16.378 57.058 45.281 68.618 82.541 3.367 10.851-6.331 21.134-17.428 18.703-19.366-4.243-44.377-.973-61.103 13.05-5.235 4.389-12.736 4.506-18.275.508-25.38-18.323-66.963-17.013-84.195 8.85z" fill="#565e75"/><path d="m406.117 263.867c-21.135 19.251-54.707 34.336-74.27 34.336l-9.02 85.986c10.661-16.001 30.642-22.594 50.341-20.964l43.542-105.121c-3.855 1.017-7.507 2.952-10.593 5.763z" fill="#404656"/><path d="m105.898 263.867c-3.086-2.811-6.738-4.746-10.594-5.764l43.543 105.121c19.699-1.629 39.68 4.964 50.34 20.964l-9.019-85.986c-19.562.001-53.135-15.084-74.27-34.335z" fill="#404656"/><path d="m438.582 126.908-116.346 280.886c-24.44 59.003-108.017 59.003-132.456 0l-116.347-280.886z" fill="#f6ee86"/><path d="m103.036 198.378c48.008-16.252 122.647-18.038 152.971-18.038s104.965 1.786 152.971 18.038l29.603-71.469h-365.148z" fill="#f2d98d"/><g fill="#e7889d"><path d="m81.2 145.659 33.973 82.018c4.38 1.113 8.966 1.708 13.692 1.708 30.614 0 55.432-24.818 55.432-55.432 0-19.85-10.44-37.253-26.123-47.044h-58.618c-7.515 4.691-13.823 11.128-18.356 18.75z"/><path d="m322.236 407.794 7.162-17.29c-9.217-17.821-27.806-30.01-49.254-30.01-30.614 0-55.432 24.818-55.432 55.432 0 12.503 4.143 24.037 11.126 33.31 32.631 9.303 71.1-4.509 86.398-41.442z"/><path d="m406.668 156.06c-30.614 0-55.432 24.818-55.432 55.432 0 22.074 12.905 41.131 31.58 50.047l42.373-102.298c-5.793-2.053-12.024-3.181-18.521-3.181z"/></g><path d="m357.038 186.804c18.493 2.653 36.579 6.373 51.94 11.573l16.211-39.135c-5.793-2.054-12.024-3.182-18.521-3.182-21.741 0-40.548 12.524-49.63 30.744z" fill="#e16e7e"/><path d="m158.174 126.909h-58.618c-7.515 4.692-13.822 11.129-18.356 18.75l21.837 52.719c23.249-7.871 52.739-12.349 80.424-14.874.539-3.105.837-6.292.837-9.551-.001-19.85-10.442-37.253-26.124-47.044z" fill="#e16e7e"/><path d="m423.878 166.505c-21.945-7.905-72.932-21.166-167.87-21.166-94.939 0-145.926 13.261-167.869 21.166-22.189 7.995-46.66-3.515-54.655-25.707-7.994-22.191 3.515-46.66 25.707-54.655 33.205-11.961 94.305-26.221 196.818-26.221 102.511 0 163.611 14.26 196.817 26.221 22.192 7.994 33.701 32.464 25.708 54.655-8.01 22.229-32.506 33.689-54.656 25.707z" fill="#f6b88e"/><path d="m200.873 61.417c-70.052 3.96-114.927 15.088-141.683 24.726-22.192 7.995-33.7 32.464-25.707 54.655 7.995 22.192 32.466 33.702 54.655 25.707 18.455-6.648 57.458-17.084 125.868-20.234-16.232-18.806-25.954-59.867-13.133-84.854z" fill="#eba188"/><g><g fill="#eda1ab"><ellipse cx="177.631" cy="293.985" rx="28.919" ry="23.03"/><ellipse cx="334.384" cy="293.985" rx="28.92" ry="23.03"/></g></g><path d="m510.993 340.855c-10.651-34.329-37.571-66.778-72.012-86.801-12.131-7.053-27.368-5.338-37.914 4.269-3.839 3.496-8.251 6.948-13.038 10.23l38.684-93.392c24.404 5.866 50.058-7.346 58.875-31.82 9.382-26.046-4.176-54.87-30.223-64.253-33.77-12.164-95.769-26.665-199.358-26.665-51.822 0-126.169 3.859-186.062 22.243-3.96 1.215-6.185 5.411-4.969 9.371s5.411 6.185 9.371 4.969c58.116-17.838 130.865-21.583 181.661-21.583 101.425 0 161.629 14.018 194.274 25.777 18.266 6.58 27.772 26.792 21.194 45.057-6.587 18.285-26.731 27.796-45.057 21.192-48.143-17.341-119.061-21.609-170.412-21.609-51.611 0-122.066 4.193-170.412 21.61-18.308 6.595-38.46-2.883-45.057-21.192-4.273-11.863-1.839-25.202 6.352-34.81 2.687-3.152 2.311-7.886-.842-10.573-3.152-2.687-7.885-2.311-10.573.842-11.675 13.694-15.142 32.709-9.049 49.625 8.743 24.263 34.248 37.738 58.874 31.82l38.684 93.392c-4.786-3.282-9.199-6.733-13.037-10.23-10.547-9.607-25.785-11.322-37.914-4.269-34.44 20.022-61.361 52.472-72.012 86.801-5.059 16.306 9.436 31.927 26.196 28.251 16.177-3.546 39.36-1.373 54.679 11.471 7.813 6.551 19.115 6.884 27.484.842 16.749-12.092 41.634-14.361 59.008-5.667l14.461 34.911c12.991 31.363 42.079 48.93 73.258 48.93 14.048 0 27.955-3.671 40.26-10.868 3.575-2.091 4.779-6.685 2.688-10.26-2.092-3.577-6.686-4.778-10.261-2.688-14.354 8.395-32.087 10.829-48.436 6.871-21.206-31.441 1.263-74.656 39.784-74.656 16.859 0 32.249 8.732 40.933 23.003-5.131 12.084-6.23 15.86-9.605 21.763-2.057 3.596-.81 8.178 2.786 10.234 3.579 2.049 8.168.824 10.233-2.786 4.354-7.608 4.993-10.788 19.135-44.455 17.372-8.696 42.259-6.427 59.008 5.666 8.385 6.051 19.685 5.698 27.484-.842 15.319-12.842 38.497-15.016 54.679-11.471 16.745 3.672 31.262-11.927 26.198-28.25zm-117.856-175.352c7.534 1.724 13.913 3.458 19.234 5.087l-33.199 80.149c-12.615-8.886-20.436-23.56-20.436-39.246 0-21.363 14.062-40.03 34.401-45.99zm-272.548 55.651-20.945-50.564c15.229-4.661 39.111-10.193 73.959-13.829 13.269 34.325-16.029 70.835-53.014 64.393zm-19.987 148.103c-2.804 2.023-6.531 1.951-9.067-.174-20.537-17.219-49.212-18.642-67.526-14.629-5.481 1.202-10.323-3.792-8.66-9.154 9.566-30.833 33.949-60.096 65.225-78.278 6.444-3.747 14.592-2.786 20.274 2.391 8.898 8.105 20.437 15.953 32.724 22.284l27.159 65.567c-20.006-4.522-43.072-.321-60.129 11.993zm227.182 5.545c-11.795-13.707-29.034-21.809-47.641-21.809-41.822 0-72.144 40.294-60.442 80.553-10.107-6.875-18.04-16.666-22.992-28.623l-69.616-168.067c43.084 1.212 74.638-40.5 61.901-81.51 19.318-1.549 41.55-2.507 67.014-2.507 48.952 0 85.981 3.537 113.259 8.018-15.693 11.593-25.53 30.17-25.53 50.635 0 21.717 11.415 41.958 29.589 53.364zm160.223-20.348c-18.316-4.014-46.99-2.588-67.526 14.629-2.535 2.126-6.263 2.198-9.067.174-17.057-12.314-40.122-16.515-60.129-11.994l27.159-65.568c12.288-6.331 23.826-14.179 32.725-22.284 5.683-5.176 13.83-6.137 20.274-2.39 31.275 18.183 55.658 47.446 65.225 78.278 1.663 5.366-3.184 10.357-8.661 9.155zm-293.522-106.795c-11.725 0-21.265 9.54-21.265 21.265 0 4.142 3.358 7.5 7.5 7.5s7.5-3.358 7.5-7.5c0-3.454 2.811-6.265 6.265-6.265 3.455 0 6.265 2.811 6.265 6.265 0 4.142 3.358 7.5 7.5 7.5s7.5-3.358 7.5-7.5c0-11.725-9.539-21.265-21.265-21.265zm123.045 0c-11.726 0-21.265 9.54-21.265 21.265 0 4.142 3.357 7.5 7.5 7.5s7.5-3.358 7.5-7.5c0-3.454 2.811-6.265 6.265-6.265s6.265 2.811 6.265 6.265c0 4.142 3.357 7.5 7.5 7.5s7.5-3.358 7.5-7.5c0-11.725-9.539-21.265-21.265-21.265zm-41.993 31.7c-3.123-2.722-7.861-2.397-10.581.726-2.261 2.593-5.521 4.08-8.948 4.08-3.426 0-6.688-1.487-8.947-4.08-2.723-3.123-7.459-3.447-10.582-.727-3.123 2.722-3.448 7.459-.727 10.582 5.109 5.862 12.492 9.224 20.255 9.224s15.145-3.362 20.255-9.224c2.722-3.122 2.398-7.859-.725-10.581z"/></g></svg>