<svg id="Capa_1" enable-background="new 0 0 512.019 512.019" height="512" viewBox="0 0 512.019 512.019" width="512" xmlns="http://www.w3.org/2000/svg"><g><path d="m405.165 284.451c3.932 29.963 29.273 79.044 48.826 106.927 6.947 9.906.778 23.608-11.237 25.038-10.14 1.207-19.911 1.208-26.586 1.183.821 14.342-16.532 41.588-26.425 50.551h-267.467c-9.893-8.963-27.246-36.209-26.425-50.551-6.676.025-16.447.024-26.586-1.183-12.015-1.43-18.184-15.131-11.237-25.038 19.553-27.884 44.894-76.964 48.826-106.927z" fill="#eba188"/><path d="m371.16 504.519c16.928 0 29.682-15.673 25.932-32.18-14.631-64.413-72.242-112.494-141.083-112.494s-126.452 48.082-141.083 112.494c-3.75 16.508 9.004 32.18 25.932 32.18z" fill="#565e75"/><path d="m256.009 359.844c-38.623 0-73.71 15.137-99.656 39.799 27.983 15.452 62.091 24.294 99.656 24.294s71.673-8.842 99.656-24.294c-25.946-24.662-61.032-39.799-99.656-39.799z" fill="#404656"/><path d="m319.44 363.449c-3.676 26.782-27.198 91.899-63.431 91.899s-59.755-65.117-63.431-91.899z" fill="#b0da87"/><g fill="#89d47f"><path d="m141.406 244.896c0 26.336-21.35 47.686-47.686 47.686s-47.686-21.35-47.686-47.686 12.227-52.483 38.563-52.483 56.809 26.147 56.809 52.483z"/><path d="m370.613 244.896c0 26.336 21.35 47.686 47.686 47.686s47.686-21.35 47.686-47.686-12.227-52.483-38.563-52.483-56.809 26.147-56.809 52.483z"/><path d="m299.774 419.726c10.961-19.689 17.82-42.82 19.666-56.276h-126.861c1.847 13.456 8.705 36.587 19.666 56.276 13.905 2.753 28.548 4.212 43.764 4.212 15.216-.001 29.86-1.46 43.765-4.212z"/></g><path d="m402.165 276.973c0-69.388-65.436-125.639-146.156-125.639s-146.156 56.25-146.156 125.639 65.436 116.964 146.156 116.964 146.156-47.576 146.156-116.964z" fill="#b0da87"/><path d="m171.423 202.887c-7.329 16.771-37.22 73.444-59.32 102.492-6.023 7.917-18.555 4.554-19.945-5.296-4.686-33.196 2.11-84.137 30.886-106.704z" fill="#f6b88e"/><path d="m340.596 202.887c7.329 16.771 37.22 73.444 59.32 102.492 6.023 7.917 18.555 4.554 19.945-5.296 4.686-33.196-2.11-84.137-30.886-106.704z" fill="#f6b88e"/><path d="m415.459 188.076c-5.79-78.095-89.368-150.742-155.312-178.676-14.88-6.303-31.281 3.95-32.85 20.034-1.999 20.481-16.603 43.445-51.495 57.385-55.38 22.124-77.22 64.344-82.866 100.699 19.277 6.636 126.059 15.503 163.364 15.503s159.159-14.945 159.159-14.945z" fill="#565e75"/><path d="m256.009 137.708c-63.562 0-102.83-6.101-134.12-13.59-17.143 19.803-25.717 42.562-28.953 63.4 19.277 6.635 126.059 15.503 163.364 15.503s159.159-14.945 159.159-14.945c-1.658-22.355-9.697-44.26-21.864-64.802-31.861 7.871-71.654 14.434-137.586 14.434z" fill="#404656"/><path d="m256.009 230.211c-92.041 0-140.594-11.432-182.435-23.141-15.292-4.279-24.219-20.144-19.939-35.435s20.146-24.218 35.435-19.939c37.995 10.633 82.183 21.014 166.939 21.014 84.755 0 128.943-10.381 166.939-21.014 15.293-4.278 31.156 4.649 35.436 19.939 4.279 15.292-4.648 31.156-19.94 35.435-41.842 11.709-90.395 23.141-182.435 23.141z" fill="#565e75"/><g><g><ellipse cx="175.202" cy="307.402" fill="#fff" rx="29.816" ry="23.744"/><ellipse cx="336.817" cy="307.402" fill="#fff" rx="29.817" ry="23.744"/><path d="m290.862 292.268c0-15.073-15.604-16.489-34.853-16.489s-34.853 1.416-34.853 16.489c0 15.072 15.604 27.291 34.853 27.291s34.853-12.218 34.853-27.291z" fill="#565e75"/></g></g><path d="m420.787 312.886c3.471-2.914 5.838-7.057 6.501-11.756.085-.6.164-1.214.242-1.832 26.234-4.4 45.955-27.15 45.955-54.403 0-17.69-4.863-33.339-13.508-44.184 6.296-8.662 8.732-20.01 5.63-31.1-5.389-19.246-25.428-30.523-44.681-25.14-2.493.698-5.014 1.394-7.571 2.087-13.959-35.758-42.554-71.884-81.223-102.414-3.249-2.566-7.966-2.013-10.534 1.239-2.566 3.251-2.012 7.967 1.239 10.534 36 28.424 62.658 61.676 75.879 94.425-33.26 8.137-74.783 14.866-142.707 14.866-68.132 0-109.702-6.77-143.014-14.94 13.458-25.478 35.482-44.456 65.59-56.485 33.043-13.201 53.52-36.39 56.176-63.621 1.091-11.181 12.351-18.139 22.46-13.857 11.834 5.013 24.034 11.403 36.264 18.994 3.518 2.184 8.143 1.103 10.327-2.417 2.185-3.519 1.103-8.143-2.417-10.327-12.885-7.998-25.778-14.747-38.322-20.061-19.807-8.391-41.21 5.404-43.24 26.211-2.094 21.457-19.156 40.099-46.813 51.148-34.253 13.685-60.018 36.621-74.892 66.56-2.374-.645-4.717-1.293-7.036-1.942-19.248-5.387-39.292 5.892-44.679 25.141-2.982 10.658-1.021 21.97 5.616 31.115-8.636 10.844-13.494 26.487-13.494 44.168 0 27.253 19.721 50.003 45.955 54.403.078.618.158 1.232.242 1.832.663 4.698 3.029 8.841 6.5 11.755-10.236 27.054-26.77 56.254-39.345 74.186-10.2 14.546-1.167 34.69 16.492 36.791 7.323.872 14.296 1.145 20.643 1.217 2.656 13.379 12.37 29.526 20.107 39.559-.543 2-1.056 4.01-1.516 6.037-4.808 21.169 11.465 41.341 33.246 41.341h9.929c4.142 0 7.5-3.358 7.5-7.5s-3.358-7.5-7.5-7.5h-9.929c-12.188 0-21.287-11.27-18.619-23.019 8.089-35.607 30.42-66.784 61.523-86.1 2.581 1.053 5.206 2.052 7.876 2.99 10.206 30.917 31.842 71.959 64.371 71.959s54.167-41.046 64.371-71.959c2.67-.937 5.295-1.936 7.876-2.99 31.103 19.316 53.434 50.493 61.523 86.1 2.669 11.754-6.438 23.019-18.619 23.019h-184.291c-4.142 0-7.5 3.358-7.5 7.5s3.358 7.5 7.5 7.5h184.29c21.794 0 38.051-20.188 33.246-41.341-.46-2.027-.974-4.037-1.517-6.036 7.738-10.033 17.452-26.181 20.108-39.56 6.347-.072 13.321-.346 20.643-1.217 17.642-2.099 26.699-22.233 16.492-36.791-12.574-17.93-29.11-47.13-39.345-74.185zm37.698-67.99c0 18.573-12.574 34.274-29.841 38.839.431-19.306-2.339-42.788-11.092-63.342 7.973-1.985 15.546-4.038 22.914-6.1 2.984-.835 5.776-2.024 8.345-3.506 6.123 8.152 9.674 20.414 9.674 34.109zm-397.628-71.24c2.625-9.377 11.18-15.527 20.472-15.527 13.425 0 54.071 22.079 174.68 22.079 85.707 0 130.463-10.518 168.959-21.291 11.282-3.158 23.035 3.455 26.193 14.738 3.157 11.284-3.454 23.034-14.739 26.192-41.339 11.569-89.321 22.864-180.413 22.864-91.093 0-139.075-11.295-180.414-22.864-11.31-3.165-17.903-14.879-14.738-26.191zm351.578 125.379c-.46 3.268-4.555 4.426-6.551 1.804-13.375-17.581-30.013-46.039-42.753-69.797 14.57-2.07 27.578-4.51 39.56-7.155 10.713 23.452 12.724 54.038 9.744 75.148zm-263.549-67.993c-12.739 23.758-29.375 52.213-42.752 69.797-2.006 2.634-6.09 1.453-6.55-1.804-2.98-21.11-.97-51.694 9.744-75.148 11.98 2.645 24.988 5.084 39.558 7.155zm-65.509 52.686c-17.267-4.564-29.844-20.259-29.844-38.832 0-13.69 3.549-25.949 9.668-34.102 2.596 1.491 5.393 2.671 8.351 3.499 7.369 2.062 14.945 4.116 22.921 6.102-8.753 20.553-11.526 44.028-11.096 63.333zm31.686 163.396c-7.511-11.716-12.042-23.545-11.724-29.097.118-2.065-.622-4.087-2.045-5.588-2.391-2.522-5.371-2.319-5.471-2.34-5.863.022-15.674.06-25.672-1.13-6.395-.761-9.668-8.029-5.983-13.285 13.276-18.933 30.794-49.931 41.483-78.529 1.301-.16 2.572-.46 3.798-.891 10.233 27.054 30.972 49.227 58.504 64.163-23.626 16.806-41.999 40.051-52.89 66.697zm140.946.724c-21.74 0-38.571-31.362-46.545-51.734 14.618 3.48 30.24 5.323 46.545 5.323s31.928-1.843 46.545-5.323c-7.968 20.36-24.8 51.734-46.545 51.734zm0-61.411c-66.072 0-119.565-32.484-134.478-81.201 14.205-19.716 30.973-48.885 43.266-72.161 54.501 6.203 127.8 6.218 182.427-.001 12.293 23.278 29.058 52.445 43.263 72.163-14.914 48.717-68.406 81.2-134.478 81.2zm185.86 22.532c-10 1.19-19.811 1.154-25.672 1.13-4.212-.065-7.766 3.551-7.516 7.928.317 5.549-4.219 17.374-11.728 29.088-10.891-26.644-29.265-49.883-52.888-66.688 27.532-14.936 48.271-37.109 58.504-64.163 1.226.432 2.497.731 3.797.891 10.69 28.599 28.207 59.597 41.484 78.529 3.683 5.252.417 12.524-5.981 13.285zm-158.706-137.666c-7.073-2.51-15.97-3.024-27.153-3.024s-20.08.514-27.153 3.024c-12.563 4.458-15.2 13.861-15.2 20.965 0 19.184 18.999 34.791 42.353 34.791 23.353 0 42.353-15.607 42.353-34.791-.001-7.103-2.638-16.507-15.2-20.965zm-27.154 40.756c-14.827 0-27.353-9.063-27.353-19.791 0-5.093 2.014-8.989 27.353-8.989s27.352 3.896 27.352 8.989c.001 10.728-12.526 19.791-27.352 19.791zm-50.385-62.115-21.125-3.725c-4.074-.716-7.969 2.004-8.688 6.084-.719 4.079 2.004 7.969 6.084 8.688l21.124 3.725c4.079.719 7.969-2.005 8.688-6.084.72-4.079-2.004-7.968-6.083-8.688zm-13.045 15.007c-4.142 0-7.5 3.358-7.5 7.5v12c0 4.142 3.358 7.5 7.5 7.5s7.5-3.358 7.5-7.5v-12c0-4.142-3.358-7.5-7.5-7.5zm126.861 0c-4.143 0-7.5 3.358-7.5 7.5v12c0 4.142 3.357 7.5 7.5 7.5s7.5-3.358 7.5-7.5v-12c0-4.142-3.358-7.5-7.5-7.5zm8.079-18.732-21.124 3.725c-4.079.72-6.803 4.609-6.083 8.689.719 4.08 4.609 6.803 8.689 6.084l21.124-3.725c4.079-.72 6.803-4.609 6.083-8.688-.719-4.081-4.61-6.805-8.689-6.085z"/></g></svg>